<svg xmlns="http://www.w3.org/2000/svg" viewBox="0 0 96 96">
  <rect width="96" height="96" rx="22" fill="#0a120e"/>
  <path d="M12 82 Q48 74 84 82" stroke="#6b4f2a" stroke-width="5" stroke-linecap="round" fill="none"/>
  <path d="M28 24 L34 10 L42 22 Z" fill="#22332a"/>
  <path d="M68 24 L62 10 L54 22 Z" fill="#22332a"/>
  <path d="M48 14 C29 14 20 29 20 46 L20 62 C20 72 28 79 38 79 L58 79 C68 79 76 72 76 62 L76 46 C76 29 67 14 48 14 Z" fill="#22332a" stroke="#3a5243" stroke-width="2"/>
  <ellipse cx="48" cy="63" rx="16" ry="13" fill="#31473a"/>
  <circle cx="36" cy="40" r="11" fill="#f5b942"/>
  <circle cx="60" cy="40" r="11" fill="#f5b942"/>
  <circle cx="36" cy="40" r="5" fill="#141b16"/>
  <circle cx="60" cy="40" r="5" fill="#141b16"/>
  <path d="M48 46 L43 52 L48 58 L53 52 Z" fill="#f5b942"/>
</svg>
